<?xml version="1.0" encoding="UTF-8"?>
<svg id="Calque_2" data-name="Calque 2" xmlns="http://www.w3.org/2000/svg" viewBox="0 0 491.32 480.62">
  <defs>
    <style>
      .cls-1 {
        fill: #af8f3c;
      }

      .cls-2 {
        fill: #b0903c;
      }

      .cls-3 {
        fill: #b0913d;
      }

      .cls-4 {
        fill: #1f2c23;
      }

      .cls-5 {
        fill: #f7f0de;
      }

      .cls-6 {
        fill: #b74d34;
      }
    </style>
  </defs>
  <g id="Calque_1-2" data-name="Calque 1">
    <path class="cls-4" d="M163.22,142.55l-.27-1.9c7.23-12.96,4.15-24.83-11.1-28.48l-1.27-1.5c-3.65-.96-7.23-.89-10.98-2.48s-8.27-6.47-11.83-6.36c-5.38.15-5.44,4.31-5.77,8.57-.05.6.32,1.83-.81,1.37-1.4-.58-3.94-6.59-4.42-8.23-4.2-14.32-.04-27.88,15.13-32.16,2.18-.61,9.91-1.3,10.49-1.63.46-.26.01-1.69.55-2.67,1.63-2.99,11.41-6.87,14.79-7.51.24-.33.5-.64.8-.89,2.27-1.9,16.39-.98,20.01-.41l1.72,1.3,1.62-.91c11.47,2.9,22.77,3.56,33.89,1.96,8.33-3.55,5.32,2.95,2.87,7.66l-3.94,6.38,19.05,28.3c.45,1.33-.24,2.46-1.62,2.59l-7.9-1.67c6.66,11.93,12.67,24.19,18.02,36.78.88,1.38.48,2.12-.68,2.96-.95.69-8.86-3.41-10.26-4.43.9,2.6,13.12,19.55,14.26,19.11,2.45-.95,15.42-18.4,14.53-19.23-1.65,1.26-10.09,6.13-11.26,3.34,4.81-13.16,11.41-25.84,18.16-38.19l-7.62,1.44c-1.25-.11-1.85-1-1.54-2.22l18.62-27.94c-2.25-2.64-8.13-13.12-6.29-16,.44-.69.87-1,1.77-.67,6.7,2.93,14.13,2.92,21.26,1.93l16.84-2.68,1.57.92c.17-1.69,4.19-2.23,4.67-.55-.16-1.63,8.17-1.33,8.57-1.1s.63.66.77,1.1l.7-1.07c1.77-.26,7.38.56,8.37,2.17,3.01.67,11.69,4.73,13.12,7.49.51.98.55,2.81.66,2.92.42.41,9.4,1.19,11.62,1.85,18.09,5.38,19.76,26.19,10.05,39.96-.59-4.85-.88-10.22-7.15-9.95-2.6.11-7.87,4.76-10.97,6.11-3.73,1.62-7.92,2.22-11.82,3.29l-.68,1.18c-15.17,2.74-19.27,17.15-10.77,29.23l-.09,2.02c4.49,7.62,9.84,16.76,19.52,17.58,13.65,1.16,26.21-2.49,35.17-13.17,19.58-23.36-8.07-48.35,8.78-68.71,12.56-15.17,29.89-28.86,42.88-44.5,5.26-6.33,10.66-13.38,14.01-20.89.82-.63,4.11,8.26,4.4,9.06,4.86,13.63,6.95,28.94,2.2,42.89-3.37,9.88-10.3,17.84-17.05,25.54,3.26-1.4,6.31-3.37,9.3-5.26,11.54-7.32,19.37-15.62,29.72-23.59.55-.42.7-1.06,1.65-.82,1.98,15.81,3.99,31.69-4.11,46.17-5.6,10.02-15.87,18.08-26.29,22.62l-6.96,2.65c16.92-1.25,33.62-5.02,49.46-10.98-.01,28.38-20.43,47.83-48.57,47.88l-4.18,1.03c12.65,3.45,25.57,5.91,38.72,6.62,3.65.2,8.09-.47,11.57-.02.64.08,1.1-.23.79.8-1.38,4.63-6.4,13.07-9.59,16.79-14.11,16.48-34.73,17.47-53.59,8.79,13.44,11.78,29.16,20.81,45.6,27.75-4.07,4.71-8.47,9.26-13.91,12.46-20.56,12.08-40.33,1.2-55.32-13.83l9.44,15.01c6.18,8.38,12.91,16.33,20.49,23.47,1.02.96,6.03,4.63,6.33,5.21.42.82-.33.75-.69.93-6.83,3.45-17.84,5.41-25.43,4.85-13.46-.99-26.11-11.21-33.68-21.83l-6.14-9.51c2.83,15.59,9.61,31.31,20.88,42.59-.41.9-1.28-.28-1.37-.28h-8.79c-12.51,0-26.98-11.87-32.07-22.88l-5.57-15.58,1.1,40.67-20.88-.28c10.25,16.77,21.47,32.05,35.71,45.65.65.62,3.21,1.31.84,1.88-5.06,1.21-10.65.55-15.66-.54-2.05.71-4.42.39-7.12-.94l6.4,10.3c.91,5.87-11.72,2.66-14.64,1.78,5.44,5.92,11.14,11.73,17.54,16.42,6.28,4.95,6.21,13.24-1.47,16.73l-7.17,4.02c-2.88,1.91-5.18,3.75-4.5,7.5,2.8-1.31,5.84-1.17,8.6.17,6.56-14.89,30.61-12.1,39.81-1.08l8.34,9.96c1.79-5.07,6.12-6.17,11-5.76-2.02-4.14-5.99-6.77-10.17-8.57l-9.8-4.13c-2.61-1.19-9.17-4.74-4.78-7.08,3.32-1.77,12.26-4.7,16.02-5.28,3.42-.53,6.58-.45,9.43,1.55-.75-4.05-.71-8.56,3.34-10.88-2.34-2.08-5.35-1.95-9.04.39-10.79,6.77-23.66,12.59-32.28-.69l.27-1.33c4.54,2.51,8.65,3.96,13.97,3.25,9.42-1.25,18.4-15.07,29.41-7.34,3.35,2.35,11.23,9.32,12.97,12.86,3.29,6.67,3.23,15.96-1.39,22,.9-6.45-2.83-14.69-9.77-15.79-3.69-.58-2.18.24-3.67,1.51-2.75,2.34-6.63.33-9.91.54-2.66.17-5.38,1.66-7.98,2.21.13.83,1.87,1.21,2.6,1.51,6.05,2.46,14.72,3.11,16.49,10.44.55,2.26.04,4.57.26,6.33.32,2.44,2.05,5.11,2.11,8.37.23,11.62-10.2,22.18-22.02,20.61l4.94-3.57c3.63-4.19,4.75-10.57,1.65-15.39-.44-.3-2.55,2.19-4.25,2.36-4.88.47-7.47-6.07-10.37-9.16-3.98-4.23-10.59-8.79-16.5-9.33-13.82-1.25-24.67,11.03-11.93,21.27l6.77,3.93c-7.42,2.85-17.35.31-22.27-6.03-1.71-2.2-2.88-4.03-4.68-6.3-5.92-7.43-6.23-17.51,1.97-23.37l10.69-7.97c-2.68-2.8-5.55-5.48-8.52-7.97-2.25-1.88-7.67-6.38-9.96-7.63-.79-.43-1.44-.78-2.39-.63-.18,6.88-3.77,14.05-8.79,18.68-6.81-21.74-22.08-40.01-35.17-58.25-4.17,26.71,9.85,50.78,23.4,72.5,8.27,13.26,17.35,26.04,27.42,37.97l10.72,10.43c-8.3.81-17.13,1.21-25.28-.81-27.38-6.8-45.43-39.88-52.21-65.13-1.01-.12-.47,1.17-.4,1.77.73,5.57,2.46,12.61,3.86,18.13,6.32,24.89,17.16,49.49,29.52,71.87-15.02-2.28-28.34-11.76-35.95-24.77l-5.27-11.5v21.71c0,5.9-7.33,22.48-10.87,27.59-.33.48.09,1.02-1.22.71-3.45-7.35-7.71-14.54-9.63-22.53-.35-1.47-1.37-5.71-1.37-6.87v-20.61l-2.28,5.69c-7.29,16.04-21.35,27.76-38.94,30.57,13.35-24.03,24.77-50.66,30.95-77.58.84-3.67,1.95-8.2,2.43-11.87.08-.6.61-1.89-.4-1.77-7.54,25.69-25.3,59.18-53.96,65.03-7.59,1.55-15.86,1.08-23.54.36l9.62-9.33c9.62-11.28,18.34-23.29,26.33-35.78,14.29-22.34,29.77-48.14,25.6-75.79-1.3.82-2.28,2.43-3.19,3.67-12.14,16.7-25.37,34.95-31.98,54.58l-6.34-8.77-3.27-9.9-19.8,15.38c-.4.57-.39,1.06,0,1.65.89,1.39,8.2,5.33,10.14,6.91,8.26,6.74,8.84,15.39,2.54,23.89-1.41,1.91-3.68,5.1-5.23,6.85-5.44,6.12-14.38,7.74-21.99,5.2l6.55-3.61c13.46-10.1,2.14-23.08-11.71-21.6-5.47.59-12.16,4.89-15.99,8.73-4.39,4.4-7.68,14.6-15.11,7.14-3.07,5.85-1.98,11.74,2.45,16.51l4.14,2.72c-13.11,1.2-22.49-10.14-21.45-22.82.2-2.5,1.34-4.14,1.64-6.06.71-4.6-.73-9.03,4.24-12.24l15.57-6.13c-2.87-.28-5.65-2.02-8.53-2.2-2.52-.16-4.77.88-7.1.52-3.14-.48-2.33-3.43-6.94-2.48-6.54,1.36-9.85,8.97-9.32,15.14-5.1-6.69-4.25-18.14.82-24.74,1.31-1.71,9.96-9.18,11.8-10.18,11.27-6.12,19.32,7,29.44,7.99,5.34.52,8.6-1.03,12.91-3.84.5-.28,1.21-.29,1.35.19.33,1.13-4.31,5.92-5.5,6.85-8.35,6.54-18.66.96-26.38-3.78-4.14-2.74-7.63-3.1-10.48-1.07,3.47,2.26,4.53,5.93,3.17,10.99,4.95-3.43,12.9-1.07,18.31.66,5.47,1.74,13.48,4.38,4.43,8.9l-12.13,5.44c-3.78,1.78-7.32,4.25-9.1,8.17,5.66-.16,9.1,1.83,10.34,5.96,9.09-17.14,36.36-28.51,48.28-8.78,2.72-1.65,5.57-1.97,8.35-.26,1.31-3.03-2.36-6.09-4.78-7.67-9.38-4.96-19.22-10.41-8.25-20.64,6.51-4.51,12.19-10.32,17.51-16.25-2.01.66-12.05,2.55-13.61.92-.71-.74-1.18-1.28-.73-2.34l7.33-11.52-7.2,2.43-1.67-.71c-5.42,1.21-9.12,1.1-14.56.53-.8-.08-1.61.48-1.38-.8,15.16-13.24,27.14-29.83,37.91-46.72l-20.88.28.55-40.12-4.47,12.83c-6.43,13.6-17.84,23.43-33.18,25.08l-10.16.29c11.28-10.93,18.29-27.23,20.88-42.59l-9.35,14c-9.95,11.39-21.97,18.47-37.62,17.32-3.52-.26-15.87-3.18-18.42-5.21-.82-.66-.49-.51.03-1.07,1.15-1.23,3.61-2.64,4.93-3.87,10.94-10.21,21.05-22.68,28.8-35.5.7-1.16,1.71-2.5,1.96-3.8-16.86,16.82-39.86,27.16-60.71,9.88-1.08-.9-8.9-8.32-7.99-9.32,16.21-5.58,31.56-15.39,44.52-26.38-14.44,5.24-28.21,7.55-42.14-.46-10.3-5.93-16.7-15.36-20.51-26.47,16.51.02,34.65-1.24,50.37-6.54.85-.29,1.58.49,1.29-1.16-.86.42-1.32.52-2.29.44-26.53-2.23-46.58-12.16-50.32-40.98-.32-2.46.29-4.98-.7-7.26,15.97,5.56,32.49,9.79,49.46,10.98l-6.97-2.64C14.09,117.66,7.04,95.68,11.62,65.96l1.29-4.19c11.13,10.23,22.69,20.3,35.84,27.92,1.39.81,3.06,1.8,4.57,2.3-9.43-9.82-17.76-21.08-19.71-34.97-1.88-13.37,1.23-28.95,7.24-40.97.32-.64.7-2.06,1.47-2.09,8.04,15.83,20.8,28.79,32.97,41.5,7.33,7.66,16.7,15.41,23.38,23.34,16.71,19.82-7.31,42.22,6.63,65.36,8.23,13.66,29.71,21.49,44.64,15.6,5.08-2.01,10.81-12.44,13.3-17.2Z"/>
    <path class="cls-3" d="M334.69,59.56c-1.58-.35-7.66-1.1-9.07-1.1h-9.34c-.66,0-3.54.43-4.67.55l-2.12-1.23c-30-48-97.71-48.41-127.08.36l-2.15,1.43c-7.69-.89-14.84-1.47-22.53,0,9.22-24.7,29.04-45.11,54.12-53.87,27.27-9.53,59.69-7.21,84.54,7.81,17.49,10.57,30.4,27.4,38.3,46.06Z"/>
    <path class="cls-6" d="M143.44,339.84c3.94-.88,7.69-2.68,11.54-3.84l-9.1,14.26c-.43,1.65,4.47,1.18,5.53,1.11,4.14-.24,8.42-1.56,12.37-2.73-5.17,4.6-9.75,9.89-14.83,14.57-3.68,3.39-10.26,6.23-10.76,11.78-.82,9.18,15.95,9.65,18.07,18.82.27,1.18-.52,2.48.37,3.73-1.83-.43-3.69-2.05-5.67-2.02-1.58.03-3.72,1.12-5.05,2.01-2.3-5.64-5.21-8.24-11.14-9.73-13.13-3.29-22.61,1.64-31.18,11.38-1.11,1.26-4.06,6.2-5.01,6.53-1.93.67-1.28-1.9-2.39-3.37-1.74-2.32-7.19-2.24-9.9-2.61,3.91-11.48,18.22-11.26,26.37-18.41-.6-.79-1.32-1.22-2.18-1.65-4.99-2.5-15.61-5.65-21.04-4.54-1.67.34-4.09,3.32-4.2.76-.14-3.31,1.86-5.88-1.13-9.41-1.02-1.21-2.94-.89-1.68-2.76,2.48-3.68,8.72-.57,11.76.92,6.04,2.97,8.49,5.98,16.02,6.51s10.03-3.11,14.55-8.51l-.54-.27c7.28-6.69,13.12-14.82,19.24-22.53Z"/>
    <path class="cls-6" d="M347.33,339.84c6.42,7.84,12.81,15.72,19.78,23.08,3.32,3.51,5.85,7.74,11.24,8.27,3.8.37,7.95-.9,11.44-2.35,4.52-1.89,14.98-10.51,19.12-5.12,1.35,1.76-.81,1.81-1.69,2.92-2.78,3.47-1.34,6.59-1.09,10.57-2.03-.59-3.29-2.09-5.58-2.38-7.31-.93-15.04,3.87-21.89,5.69.53,1.8,2.01,2.48,3.48,3.38,6.4,3.93,15.16,5.17,20.44,10.89.84.91,4.4,5.34,1.88,5.29-3.11-.05-6.31-.47-8.77,2.28-1.65,1.84-1.37,5.62-4.39,2.06-5.78-6.82-8.68-12.63-17.99-16.08-8.72-3.23-25.57-2.07-27.63,9.21-3.4-2.29-7.03-2.29-10.43,0,.06-2.38-.49-4.46.84-6.57,3.32-5.29,15.52-7.77,16.61-13.06,1.58-7.71-5.52-10.36-10.11-14.65-5.09-4.77-9.81-9.99-15.04-14.62,3.58.86,7.68,2.34,11.33,2.68,1.73.16,7.43.9,6.72-1.76l-8.16-13c3.22,1.21,6.52,2.56,9.89,3.29Z"/>
    <path class="cls-1" d="M340.19,111.22c-2.13,11.37-6.38,22.15-11.54,32.42-4.3-7.28-7.27-12.64-4.11-21.42,2.68-7.43,8.91-9.16,15.65-11.01Z"/>
    <path class="cls-2" d="M163.22,142.55c-6.58-9.46-10.32-20.65-12.64-31.88,18.39,4.85,21.12,15.62,12.64,31.88Z"/>
    <path class="cls-5" d="M311.61,59.01c-13.33,1.43-27.73,6.67-40.66.55-.4.54,1.48,7.15,1.92,8.24,1.24,3.01,3.87,4.92,4.61,7.86l-18.62,28.15c-.27.83-.02.87.72.72,3.38-.66,6.97-.76,10-2.65.89.72-.77,1.73-1.28,2.57-7.35,12.07-12.71,25.1-18.78,37.83,4.15-.03,8.33-3.16,11.79-5.25.42-.25.97-1.09,1.4-.25-4.74,8.22-9.49,16.56-16.83,22.77-2.03.36-11.13-12.59-12.52-14.84-1.01-1.64-3.67-5.85-4.16-7.39-.09-.28-.15-.9.26-.81,3.02,2.39,7.08,4.57,10.72,5.77.47.16,1.43.67,1.64,0-6.54-13.49-11.68-27.76-20.33-40.13l10.81,2.38.72-.73-19.69-29.22c2.86-4.63,6.4-8.82,7.05-14.47-12.83,5.79-26.89.97-40.12-.55,17.25-29.42,48.99-45.05,82.99-37.1,20.39,4.77,37.3,19.23,48.36,36.55Z"/>
    <g>
      <path class="cls-6" d="M145.64,77.14c-.38,4.1,2.34,8.28,4.96,11.25,5.53,6.27,16.96,8.9,13.72,19.53-8.58-5.5-19.37-3.8-28.57-7.7h23.08c-.6-1.17-2.32-1.78-3.47-2.29-6.96-3.09-20.42-6.15-27.61-3.78-2.09.69-3.71,2.13-5.74,2.77-2.07-15.86,10.41-19.77,23.63-19.79Z"/>
      <path class="cls-6" d="M167.62,77.15c.89,8.84-10.84,7.82-12.09,0h12.09Z"/>
      <path class="cls-6" d="M174.76,79.9c-.04.89-2.96,1.9-3.3,1.64.49-.53.48-2.11.55-2.2.09-.11,1.96.94,2.74.56Z"/>
    </g>
    <g>
      <path class="cls-6" d="M345.74,77.14c.38,4.1-2.34,8.28-4.96,11.25-5.53,6.27-16.96,8.9-13.72,19.53,8.58-5.5,19.37-3.8,28.57-7.7h-23.08c.6-1.17,2.32-1.78,3.47-2.29,6.96-3.09,20.42-6.15,27.61-3.78,2.09.69,3.71,2.13,5.74,2.77,2.07-15.86-10.41-19.77-23.63-19.79Z"/>
      <path class="cls-6" d="M323.76,77.15c-.89,8.84,10.84,7.82,12.09,0h-12.09Z"/>
      <path class="cls-6" d="M316.61,79.9c.04.89,2.96,1.9,3.3,1.64-.49-.53-.48-2.11-.55-2.2-.09-.11-1.96.94-2.74.56Z"/>
    </g>
    <g>
      <path class="cls-2" d="M245.46,302.03c2.26,0,4.96-.59,5.54-.81,3.43-1.28,5.4-3.68,6.11-4.62,1.06-1.39,2.89-4.65,3.71-5.14,1.25-.73,6.67-2.42,8.51-2.85,21.77-5.09,43.54-6.5,65.91-5.93,0-33.09.01-66.3,0-99.64l-.69-.47c-2.52.43-4.05.82-6.46,1.19v90.13c-2.43.26-4.74-.48-7.14-.55-8.68.29-17.29.48-25.83.55-12.49,1.22-26.03,5.22-36.56,12.08-2.5,1.63-11.23,8.68-13.11,8.81"/>
      <path class="cls-2" d="M321.51,170.02c-25.4-2.53-54.59,2.12-72,22.26v90.95s10.62-6.69,10.62-6.69c18.28-10.38,39.56-12.28,60.28-11.45"/>
    </g>
    <g>
      <path class="cls-2" d="M246.25,302.03c-2.26,0-4.96-.59-5.54-.81-3.43-1.28-5.4-3.68-6.11-4.62-1.06-1.39-2.89-4.65-3.71-5.14-1.25-.73-6.67-2.42-8.51-2.85-21.77-5.09-43.54-6.5-65.91-5.93,0-33.09-.01-66.3,0-99.64l.69-.47c2.52.43,4.05.82,6.46,1.19v90.13c2.43.26,4.74-.48,7.14-.55,8.68.29,17.29.48,25.83.55,12.49,1.22,26.03,5.22,36.56,12.08,2.5,1.63,11.23,8.68,13.11,8.81"/>
      <path class="cls-2" d="M170.2,170.02c25.4-2.53,54.59,2.12,72,22.26v90.95s-10.62-6.69-10.62-6.69c-18.28-10.38-39.56-12.28-60.28-11.45"/>
    </g>
  </g>
</svg>